name rise30.2954peak35.7071fall66.7804.mot
datacolumns 19
datarows 33
range 0.47834000000000 0.53167300000000
endheader
time	ground_force1_vx	ground_force1_vy	ground_force1_vz	ground_force1_px	ground_force1_py	ground_force1_pz	ground_force2_vx	ground_force2_vy	ground_force2_vz	ground_force2_px	ground_force2_py	ground_force2_pz	ground_torque1_x	ground_torque1_y	ground_torque1_z	ground_torque2_x	ground_torque2_y	ground_torque2_z	
0.47834000000000	52.39715300000000	730.73632499999997	64.45020400000000	0.29375400000000	0.00000000000000	0.13587500000000	-0.35049000000000	6.82374400000000	0.48043000000000	0.00000000000000	0.00000000000000	0.00000000000000	0.00000000000000	22.93658400000000	0.00000000000000	0.00000000000000	-0.06586300000000	0.00000000000000	
0.47999900000000	51.86146700000000	734.28909599999997	64.77038000000000	0.29276100000000	0.00000000000000	0.13588200000000	0.00105400000000	3.38488000000000	0.29667200000000	0.00000000000000	0.00000000000000	0.00000000000000	0.00000000000000	23.12565500000000	0.00000000000000	0.00000000000000	-0.01805000000000	0.00000000000000	
0.48167200000000	51.32546900000000	737.75080800000001	65.09117800000000	0.29179400000000	0.00000000000000	0.13588900000000	0.00000000000000	0.00000000000000	0.00000000000000	0.00000000000000	0.00000000000000	0.00000000000000	0.00000000000000	23.31677300000000	0.00000000000000	0.00000000000000	0.00000000000000	0.00000000000000	
0.48333800000000	50.78983500000000	741.11885500000005	65.41221899999999	0.29085200000000	0.00000000000000	0.13589600000000	0.00000000000000	0.00000000000000	0.00000000000000	0.00000000000000	0.00000000000000	0.00000000000000	0.00000000000000	23.50962300000000	0.00000000000000	0.00000000000000	0.00000000000000	0.00000000000000	
0.48499900000000	50.25517600000000	744.39064199999996	65.73304700000000	0.28993500000000	0.00000000000000	0.13590400000000	0.00000000000000	0.00000000000000	0.00000000000000	0.00000000000000	0.00000000000000	0.00000000000000	0.00000000000000	23.70384500000000	0.00000000000000	0.00000000000000	0.00000000000000	0.00000000000000	
0.48666600000000	49.72203600000000	747.56359899999995	66.05314000000000	0.28904100000000	0.00000000000000	0.13591200000000	0.00000000000000	0.00000000000000	0.00000000000000	0.00000000000000	0.00000000000000	0.00000000000000	0.00000000000000	23.89905000000000	0.00000000000000	0.00000000000000	0.00000000000000	0.00000000000000	
0.48835300000000	49.19089600000000	750.63519399999996	66.37190600000000	0.28817100000000	0.00000000000000	0.13592100000000	0.00000000000000	0.00000000000000	0.00000000000000	0.00000000000000	0.00000000000000	0.00000000000000	0.00000000000000	24.09481000000000	0.00000000000000	0.00000000000000	0.00000000000000	0.00000000000000	
0.49000600000000	48.66217600000000	753.60294999999996	66.68869500000000	0.28732400000000	0.00000000000000	0.13592900000000	0.00000000000000	0.00000000000000	0.00000000000000	0.00000000000000	0.00000000000000	0.00000000000000	0.00000000000000	24.29067200000000	0.00000000000000	0.00000000000000	0.00000000000000	0.00000000000000	
0.49167000000000	48.13623300000000	756.46445500000004	67.00280400000000	0.28649900000000	0.00000000000000	0.13593800000000	0.00000000000000	0.00000000000000	0.00000000000000	0.00000000000000	0.00000000000000	0.00000000000000	0.00000000000000	24.48615200000000	0.00000000000000	0.00000000000000	0.00000000000000	0.00000000000000	
0.49334200000000	47.61336700000000	759.21738200000004	67.31348000000000	0.28569400000000	0.00000000000000	0.13594700000000	0.00000000000000	0.00000000000000	0.00000000000000	0.00000000000000	0.00000000000000	0.00000000000000	0.00000000000000	24.68074500000000	0.00000000000000	0.00000000000000	0.00000000000000	0.00000000000000	
0.49500700000000	47.09382300000000	761.85949300000004	67.61992900000000	0.28490800000000	0.00000000000000	0.13595500000000	0.00000000000000	0.00000000000000	0.00000000000000	0.00000000000000	0.00000000000000	0.00000000000000	0.00000000000000	24.87392400000000	0.00000000000000	0.00000000000000	0.00000000000000	0.00000000000000	
0.49666700000000	46.57779100000000	764.38865899999996	67.92132100000001	0.28414100000000	0.00000000000000	0.13596400000000	0.00000000000000	0.00000000000000	0.00000000000000	0.00000000000000	0.00000000000000	0.00000000000000	0.00000000000000	25.06514700000000	0.00000000000000	0.00000000000000	0.00000000000000	0.00000000000000	
0.49835400000000	46.06541300000000	766.80287199999998	68.21679899999999	0.28339000000000	0.00000000000000	0.13597300000000	0.00000000000000	0.00000000000000	0.00000000000000	0.00000000000000	0.00000000000000	0.00000000000000	0.00000000000000	25.25385500000000	0.00000000000000	0.00000000000000	0.00000000000000	0.00000000000000	
0.50000700000000	45.55678400000000	769.10025199999995	68.50548200000000	0.28265500000000	0.00000000000000	0.13598200000000	0.00000000000000	0.00000000000000	0.00000000000000	0.00000000000000	0.00000000000000	0.00000000000000	0.00000000000000	25.43948200000000	0.00000000000000	0.00000000000000	0.00000000000000	0.00000000000000	
0.50167300000000	45.05195600000000	771.27906199999995	68.78647500000000	0.28193400000000	0.00000000000000	0.13599000000000	0.00000000000000	0.00000000000000	0.00000000000000	0.00000000000000	0.00000000000000	0.00000000000000	0.00000000000000	25.62145400000000	0.00000000000000	0.00000000000000	0.00000000000000	0.00000000000000	
0.50334000000000	44.55093900000000	773.33771800000000	69.05887300000001	0.28122600000000	0.00000000000000	0.13599900000000	0.00000000000000	0.00000000000000	0.00000000000000	0.00000000000000	0.00000000000000	0.00000000000000	0.00000000000000	25.79919500000000	0.00000000000000	0.00000000000000	0.00000000000000	0.00000000000000	
0.50500300000000	44.05371100000000	775.27479600000004	69.32177100000000	0.28052800000000	0.00000000000000	0.13600700000000	0.00000000000000	0.00000000000000	0.00000000000000	0.00000000000000	0.00000000000000	0.00000000000000	0.00000000000000	25.97212800000000	0.00000000000000	0.00000000000000	0.00000000000000	0.00000000000000	
0.50666700000000	43.56021400000000	777.08904600000005	69.57426700000001	0.27983900000000	0.00000000000000	0.13601500000000	0.00000000000000	0.00000000000000	0.00000000000000	0.00000000000000	0.00000000000000	0.00000000000000	0.00000000000000	26.13968200000000	0.00000000000000	0.00000000000000	0.00000000000000	0.00000000000000	
0.50834400000000	43.07036300000000	778.77939500000002	69.81547200000000	0.27915800000000	0.00000000000000	0.13602200000000	0.00000000000000	0.00000000000000	0.00000000000000	0.00000000000000	0.00000000000000	0.00000000000000	0.00000000000000	26.30129300000000	0.00000000000000	0.00000000000000	0.00000000000000	0.00000000000000	
0.51001900000000	42.58404900000000	780.34495600000002	70.04451400000001	0.27848300000000	0.00000000000000	0.13602900000000	0.00000000000000	0.00000000000000	0.00000000000000	0.00000000000000	0.00000000000000	0.00000000000000	0.00000000000000	26.45640700000000	0.00000000000000	0.00000000000000	0.00000000000000	0.00000000000000	
0.51168300000000	42.10114000000000	781.78503699999999	70.26054300000000	0.27781200000000	0.00000000000000	0.13603600000000	0.00000000000000	0.00000000000000	0.00000000000000	0.00000000000000	0.00000000000000	0.00000000000000	0.00000000000000	26.60448500000000	0.00000000000000	0.00000000000000	0.00000000000000	0.00000000000000	
0.51334400000000	41.62149000000000	783.09914500000002	70.46274099999999	0.27714400000000	0.00000000000000	0.13604200000000	0.00000000000000	0.00000000000000	0.00000000000000	0.00000000000000	0.00000000000000	0.00000000000000	0.00000000000000	26.74500500000000	0.00000000000000	0.00000000000000	0.00000000000000	0.00000000000000	
0.51500600000000	41.14493700000000	784.28698699999995	70.65032400000000	0.27647700000000	0.00000000000000	0.13604800000000	0.00000000000000	0.00000000000000	0.00000000000000	0.00000000000000	0.00000000000000	0.00000000000000	0.00000000000000	26.87746700000000	0.00000000000000	0.00000000000000	0.00000000000000	0.00000000000000	
0.51667200000000	40.67131200000000	785.34848299999999	70.82254700000000	0.27580900000000	0.00000000000000	0.13605300000000	0.00000000000000	0.00000000000000	0.00000000000000	0.00000000000000	0.00000000000000	0.00000000000000	0.00000000000000	27.00139400000000	0.00000000000000	0.00000000000000	0.00000000000000	0.00000000000000	
0.51833700000000	40.20043900000000	786.28375800000003	70.97871200000000	0.27513800000000	0.00000000000000	0.13605800000000	0.00000000000000	0.00000000000000	0.00000000000000	0.00000000000000	0.00000000000000	0.00000000000000	0.00000000000000	27.11633300000000	0.00000000000000	0.00000000000000	0.00000000000000	0.00000000000000	
0.51999900000000	39.73213900000000	787.09315500000002	71.11816800000000	0.27446400000000	0.00000000000000	0.13606200000000	0.00000000000000	0.00000000000000	0.00000000000000	0.00000000000000	0.00000000000000	0.00000000000000	0.00000000000000	27.22186400000000	0.00000000000000	0.00000000000000	0.00000000000000	0.00000000000000	
0.52167200000000	39.26623500000000	787.77722700000004	71.24032099999999	0.27378500000000	0.00000000000000	0.13606500000000	0.00000000000000	0.00000000000000	0.00000000000000	0.00000000000000	0.00000000000000	0.00000000000000	0.00000000000000	27.31759400000000	0.00000000000000	0.00000000000000	0.00000000000000	0.00000000000000	
0.52333300000000	38.80255400000000	788.33674299999996	71.34462900000000	0.27309800000000	0.00000000000000	0.13606800000000	0.00000000000000	0.00000000000000	0.00000000000000	0.00000000000000	0.00000000000000	0.00000000000000	0.00000000000000	27.40316600000000	0.00000000000000	0.00000000000000	0.00000000000000	0.00000000000000	
0.52500700000000	38.34093200000000	788.77268800000002	71.43061600000000	0.27240400000000	0.00000000000000	0.13607000000000	0.00000000000000	0.00000000000000	0.00000000000000	0.00000000000000	0.00000000000000	0.00000000000000	0.00000000000000	27.47825700000000	0.00000000000000	0.00000000000000	0.00000000000000	0.00000000000000	
0.52669800000000	37.88121200000000	789.08625800000004	71.49786600000000	0.27170000000000	0.00000000000000	0.13607100000000	0.00000000000000	0.00000000000000	0.00000000000000	0.00000000000000	0.00000000000000	0.00000000000000	0.00000000000000	27.54258300000000	0.00000000000000	0.00000000000000	0.00000000000000	0.00000000000000	
0.52834500000000	37.42325400000000	789.27886100000001	71.54602900000000	0.27098500000000	0.00000000000000	0.13607200000000	0.00000000000000	0.00000000000000	0.00000000000000	0.00000000000000	0.00000000000000	0.00000000000000	0.00000000000000	27.59589500000000	0.00000000000000	0.00000000000000	0.00000000000000	0.00000000000000	
0.53000400000000	36.96693000000000	789.35211300000003	71.57482100000000	0.27025800000000	0.00000000000000	0.13607200000000	0.00000000000000	0.00000000000000	0.00000000000000	0.00000000000000	0.00000000000000	0.00000000000000	0.00000000000000	27.63798800000000	0.00000000000000	0.00000000000000	0.00000000000000	0.00000000000000	
0.53167300000000	36.51213200000000	789.30783499999995	71.58403000000000	0.26951900000000	0.00000000000000	0.13607100000000	0.00000000000000	0.00000000000000	0.00000000000000	0.00000000000000	0.00000000000000	0.00000000000000	0.00000000000000	27.66869200000000	0.00000000000000	0.00000000000000	0.00000000000000	0.00000000000000	
